<?xml version="1.0" encoding="utf-8"?>
<!-- Generator: Adobe Illustrator 23.0.5, SVG Export Plug-In . SVG Version: 6.00 Build 0)  -->
<svg version="1.1" id="Слой_1" xmlns="http://www.w3.org/2000/svg" xmlns:xlink="http://www.w3.org/1999/xlink" x="0px" y="0px"
	 viewBox="0 0 1600 800" style="enable-background:new 0 0 1600 800;" xml:space="preserve">
<style type="text/css">
	.st0{fill:#525B84;}
	.st1{fill:#DCD6F7;}
	.st2{fill:#F4EEFF;}
	.st3{fill:#8F80B7;}
	.st4{fill:#FFFFFF;stroke:#000000;stroke-miterlimit:10;}
	.st5{fill:#FCF8E8;}
	.st6{fill:none;}
	.st7{stroke:#000000;stroke-miterlimit:10;}
	.st8{fill:none;stroke:#000000;stroke-miterlimit:10;}
	.st9{fill:none;stroke:#828282;stroke-miterlimit:10;}
	.st10{fill:#494CA2;}
	.st11{fill:#8186D5;}
	.st12{fill:#D3D7EA;}
	.st13{fill:#FFD31D;}
	.st14{fill:#ECDFC8;}
	.st15{fill:#FFFFFF;}
	.st16{fill:#FFB385;}
	.st17{fill:#FF7272;}
	.st18{fill:#A6B1E1;}
	.st19{fill:#424874;stroke:#000000;stroke-miterlimit:10;}
</style>
<rect y="1.3" class="st0" width="1600" height="799.2"/>
<path class="st1" d="M1126.1,211.4c-4.8-5-11.4-11.4-19.9-18.2c-22.7-18.2-43.8-27.4-52.6-30.9c-39-15.5-73.8-13.8-94.1-12.6
	c-38.1,2.3-81.4,5.4-107.6,38.6c-11.6,14.7-15.3,29.7-18.7,43.3c-9.2,37-2,67.3,7.2,104.3c11,44.2,26.4,73.2,46.8,111.6
	c8.1,15.2,17.4,31,32.6,47.4c5.8,6.3,10.8,10.7,20.7,19.4c10.8,9.5,19.6,16.5,24.8,20.7c8.1,6.4,15.6,12,23.4,17.6
	c22.4,16.2,40.9,27.8,44,29.9c29.1,20.9,57.4,43,86.5,63.8c23.1,16.5,57.3,41.5,98.5,73.7c0,0,17.2,12.5,34.2,12.6
	c0.5,0,1.1,0,1.1,0c7.3-0.1,12.7-1.5,15.8-2.3c11.3-2.9,21.7-8.6,21.7-8.6c16.3-8.8,26.3-20.4,34.7-29.7c4.8-5.3,8-9.7,11.2-14.1
	c17.1-23.2,25.6-34.8,36.5-51.4c36.3-55.5,38.8-70.3,36.9-80.8c-1.4-8-4.7-16.1-4.7-16.1c-4.7-11.6-11-19.8-15.4-24.7
	c-30.8-36.7-55.7-66.4-73.1-87.2c-17.2-20.6-23.1-27.8-34.2-40.7c-13.7-15.9-34.7-40.4-62.7-71.3c-9.7-10.7-20.6-22.6-32.8-35.5
	c-5.6-6-9.6-11.3-12.3-14.6"/>
<path class="st2" d="M930.6,152.1c11.3-1.4,20.5-2.6,29.6-3.3c9-0.6,28.7-2,52,1.6c10.4,1.6,44.5,7.7,80.8,31.5
	c7.3,4.8,13,9.5,24.6,18.9c8.3,6.8,29.4,24.3,71.1,67.6c15.2,15.7,26.2,27.7,27.3,29c48.8,53.3,117.2,132.9,139.9,159.5
	c4.7,4.7,34.4,34.3,49.2,60.7c6.3,11.2,8.9,20.2,7.9,29.5c-0.5,4.6-1.8,8.4-3.3,12.7c-3.7,10.8-8.5,18.9-12,24.2
	c-18.6-24.7-44.4-57.7-76.7-95.7c-54.5-64.1-97-105.2-182-187.5c-26.7-25.9-78.4-75.4-132.7-103.9C972.4,179,940.6,171,936.5,170
	c-19.8-4.9-36.9-6.9-49.2-7.8c4.7-1.8,11.7-4.3,20.4-6.3C912.7,154.7,917.9,153.7,930.6,152.1z"/>
<path class="st3" d="M1143.7,272.4c7.6,8.8,18.4,23.8,25,44.9c2.4,7.5,5.7,20.7,5.7,37.6c0,37.3-16.2,70.7-41.9,93.8l0,0
	c-22.3,20-51.8,32.2-84.1,32.2c-69.6,0-126.1-56.4-126.1-126.1c0-18.7,5.5-36.8,5.5-36.8s5.5-18,16.1-33.8
	c15.2-22.5,51.1-54.5,102.1-55.4C1103.3,227.7,1138.7,266.7,1143.7,272.4z"/>
<path class="st4" d="M1041.5,203.6"/>
<path class="st5" d="M960.1,444.9c-3-5.9-3.6-10.7-3.6-14.1c0-4.4,1.1-8.8-0.1-16c-0.2-1.4-0.5-2.6-0.7-3.4c-0.8,3.5-1.7,7-2.5,10.5
	c-2.3-7.5-3.8-16-3.6-25.4c0-0.9,0.1-1.8,0.1-2.7c-1.4,1.5-2.9,3-4.3,4.4c-0.3-4.5-0.4-9.5-0.3-14.7c0.2-6.9,0.7-13.3,1.5-19
	c-1.7,1-3.4,2.1-5.1,3.1c0.9-5.4,2.2-11.4,4.1-17.8c2-6.9,4.3-13,6.6-18.3c-2.5,3.1-5,6.2-7.5,9.3c1.2-6.8,3.4-15.5,8-24.8
	c2.1-4.3,4.3-8,6.5-11.2c-1.8-0.8-3.3-1.6-4.4-2.3c-1.1-0.7-2.1-1.4-2.9-2.1c-1.8-1.4-2.3-2.3-2.5-2.5c-0.6-1-0.9-1.9-1-2.2
	c-1.8-4.2-3.2-7.8-4.1-10.4c-6.9-19.7-8.1-37.3-9.2-53.9c-0.3-4.4-0.4-8.1-0.5-10.3c2.5-0.9,5-1.9,7.5-2.8c0-6.7,0-13.3,0-20
	c8.6,4.9,17.2,9.7,25.8,14.6c0-3.4,0-6.8,0-10.3c7.3,6.4,14.6,12.7,21.8,19.1c1.7-2.4,3.4-4.9,5.1-7.3c6.6,7.9,13.5,17.8,19,30.1
	c0.8,1.7,1.5,3.5,2.3,5.4c1.2,3,2.2,5.9,3.1,8.7c2.3,0.2,6.4,0.4,11.1-1.2c4.6-1.6,7.8-4.1,9.4-5.6c-0.1,1.7-0.2,3.5-0.3,5.2
	c1.2,0.3,3,0.6,5,0c3.8-1.1,6.6-4.9,7.2-9.7c0.5,3.4,1,6.8,1.5,10.1c2.8-2.1,5.5-4.1,8.3-6.2c-0.5,2.2-1,4.3-1.5,6.5
	c1.5,0.4,3,0.7,4.4,1.1c1,0.1,2,0.2,3,0.3c0.2-1,0.4-2,0.6-3c0.7,1.4,1.5,2.8,2.2,4.1c6.3,1.5,12.6,3,19,4.5
	c4.1-2.5,9.9-6.8,15.4-13.5c0.9-1.1,1.7-2.2,2.6-3.4c7.4-10.4,9.8-20.6,10.8-26.2c1.4,2.4,2.7,4.8,4.1,7.2c2.1-6.5,4.1-13,6.2-19.5
	c1.2,2.8,2.8,5.9,5.1,9.1c0.8,1.1,1.6,2.1,2.4,3.1c1.4-1.6,2.9-3.3,4.3-4.9c1.9,1.9,3.8,3.8,5.7,5.7c2.4-3.2,4.7-6.4,7.1-9.5
	c-0.3,5.6-0.7,11.1-1,16.7c2.2-0.9,4.5-1.7,6.7-2.6c1.4,2,2.7,3.9,4.1,5.9c2.1-1.1,4.1-2.2,6.2-3.4c1.4,3.9,2.7,7.9,4.1,11.8
	c1.4,6.1,3.4,13.3,6.7,21c4.1,10,9,18,13.4,24.1c-5,0.6-13.6,1-23.6-2.1c-11.6-3.5-19.3-9.7-23.1-13.3c-1.7,0.8-4.8,2.5-7,5.9
	c-0.8,1.2-1.3,2.3-1.7,3.3c-0.5,1.5-0.9,3.4-1.3,5.4c-0.4,2.1-0.5,4-0.5,5.7c0.1,1.8,0.2,3.5,0.2,5.3c4.3,5.1,9.5,12.2,14,21.5
	c4.2,8.7,6.5,16.6,7.9,22.9c-1.9-2.1-3.3-3.9-4.4-5.4c0,0-3.8-4.6-5.5-8.9l0,0l0.4,0.7c3.1,6.5,5.1,14.9,5.1,14.9
	c0.8,2.4,1.5,5,2.2,7.7c1.2,4.6,2.1,9,2.9,13.2c-1-1.2-2.3-2.8-3.5-4.9c-2.7-4.6-3.4-8.3-3.6-8.3s1.3,6.5,5.7,21.5
	c1.6,5.4,2.9,9.9,3.8,12.9c-1.5-2.2-3-4.5-4.6-6.8c-1.7-2.5-3.4-4.8-5.1-7.1c1.5,7.1,3,14.5,4.2,22.4c0.8,5,1.4,9.8,2,14.5
	c-0.9-0.4-2.2-1.1-3.4-2.3c-2.3-2.4-2.7-5.2-2.8-6.2c-0.4,7.1-0.8,14.2-1.2,21.3c-0.9-0.6-2.1-1.6-3.2-3c-2-2.6-2.6-5.3-2.8-6.7
	c0.9,3.2,1.8,8,1.2,13.7c-0.9,9.7-5.4,16.5-7.7,19.6c-5.8,5.8-38.9,37.8-91,37C997.6,480.1,966.7,451.3,960.1,444.9z"/>
<path class="st6" d="M961.8,219.8c1.9,5.2,7,16.8,19,26.2c8.7,6.8,17.4,9.6,22.6,10.8c-5.1,0.9-10.3,1.7-15.4,2.6c0,3.3,0,6.5,0,9.8
	c-3.4-1.5-6.8-3.1-10.3-4.6c2.2,5.2,4.3,10.4,6.5,15.5c-3.7-2.4-7.4-4.9-11.1-7.3c-0.6,3.7-1.2,7.4-1.8,11
	c-1.6-5.9-3.3-11.8-4.9-17.7"/>
<path class="st7" d="M1025.8,313.6c1.1,3.8-7.7,13.6-16.1,12.1c-3.9-0.7-8.2-3.9-8.1-7c0.1-4,7.7-6.5,11.4-7.3
	C1017.2,310.7,1024.9,310.5,1025.8,313.6z"/>
<path class="st8" d="M997.8,321.6c1-1.5,2.6-3.7,5.3-5.7c0.7-0.5,3-2.2,6.4-3.5c3.7-1.4,7.1-1.6,9.5-1.5c0.7-0.1,2.6-0.4,4.5,0.6
	c1,0.5,1.7,1.2,1.9,1.4c0,0,1.2,1.3,1.7,3.2c0.6,2.5-2.2,8.1-8.2,13.8"/>
<g>
	<path class="st9" d="M1068.6,346.5c-0.6,10.9,2.2,15.9,5.2,18.5c4.1,3.6,8.8,2.8,11.8,7.5c2.1,3.3,1.9,6.8,1.6,10.7
		c-0.3,4.6-0.7,11.7-6.2,15.8c-5.1,3.7-11.5,2.6-13.2,2.3c-1.7-0.3-3-0.8-12-5.4c-3.2-1.6-5.9-3-7.8-4c0,0-0.7-0.1-1.4-0.2
		c-5.4-0.4-8.5,3.4-12.4,5.3c-5,2.4-12.3,2.5-16.8-1c-5-3.7-5.3-10.5-5.5-14c-0.1-2.6-0.5-9.9,4.1-15.1s9.2-2.8,15.1-8.7
		c1.7-1.7,3.9-5.2,5.6-9.5c0.6-1.5,1-2.8,1.2-3.7"/>
</g>
<path class="st8" d="M1118.8,318.3"/>
<path class="st8" d="M1122.2,316.9"/>
<path class="st8" d="M1090.2,335.1c-6.9-4.2-11.3-9.3-10.8-13c0.2-1.5,1-2.7,1-2.7c1.5-1,3.6-2.2,6.4-3.4c5.6-2.5,10-4.5,14.2-3
	c1.3,0.4,3.8,1.6,6,5.3"/>
<path class="st9" d="M1044.3,391.3c-4.3,0.3-5.5,1.2-8.6,0.5c-1.5-0.3-4.9-1.1-6.8-4c-2.1-3.3-1.2-7.6,0.2-10.1
	c2.4-4.4,7.5-6.1,9.6-6.8c4.4-1.5,7.1-0.8,8.4-3c0.6-1.1,0.4-1.7,0.8-5.4c0.3-2.1,0.7-3.8,1-4.9c0-0.3,0-0.5-0.1-0.7
	c-0.6,3.7-1.1,7.3-1.7,11c0.9,0.5,2.3,1.2,4.1,1.9c2.3,0.9,3.6,1.1,5,1.5c2.2,0.6,6.4,1.9,8.7,5.3c0.2,0.2,3,4.5,1.3,8.9
	c-1.8,4.8-7.7,6.2-9.1,6.5C1052.3,393,1051.6,390.7,1044.3,391.3z"/>
<path class="st8" d="M1054.1,347.5"/>
<path class="st8" d="M1010.7,311.2"/>
<path class="st8" d="M1070.4,324.3"/>
<path class="st9" d="M1034.2,397.1c1.1,1,2.8,2.5,4.9,4c3.2,2.3,4.8,3.5,6.7,3.5c1.7,0,3.3-1,6.5-3.2c2.4-1.6,4.2-3,5.5-4.1"/>
<path class="st7" d="M1103.6,314.4c1.9,3.7-7.1,16-16.1,14.8c-4-0.6-8.3-4-8.1-7c0.1-2.7,3.7-4.4,9.9-7.5c3.6-1.8,5.4-2.1,6.4-2.2
	C1096.2,312.5,1102.4,312,1103.6,314.4z"/>
<path class="st9" d="M1053.3,389c0.4,0.9,5.6-0.1,5.9-1.7c0.1-0.6-0.4-1.2-1-1.5C1056.4,384.9,1053,388.2,1053.3,389z"/>
<path class="st9" d="M1038.6,389.4c0.5-0.8-3.4-4.4-4.9-3.7c-0.5,0.3-0.7,1.1-0.6,1.6C1033.5,389.4,1038.2,390.2,1038.6,389.4z"/>
<path class="st6" d="M1130.8,250.3c0.8,2.3,1.5,4.6,2.3,6.9c1.1-1.1,2.2-2.1,3.3-3.2c2.7,3.4,5.4,6.7,8,10.1
	c2.5,2.3,4.4,4.2,5.8,5.5c0.7,0.6,1.4,1.3,2.4,2.1c1.5,1.3,2.8,2.2,3.7,2.9"/>
<path class="st8" d="M1140,377.9"/>
<ellipse class="st10" cx="1227.8" cy="545.7" rx="69.5" ry="69.3"/>
<path class="st8" d="M1037,255.1"/>
<path class="st8" d="M952.7,311.4"/>
<ellipse class="st11" cx="1227.8" cy="545.7" rx="63.7" ry="63.5"/>
<path class="st12" d="M1241.4,607.7c17.9-15.7,25.1-39.3,18.3-59.7c-6.6-19.6-23.6-28.6-27.6-30.6c1.6-2.2,3.2-4.4,4.8-6.6
	c0.1-0.2,0.3-0.8,0-1.5c-0.4-1.1-1.6-1.4-1.7-1.4c-19.6-4.1-40-8.2-41.7-8.1c-0.3,0-0.7,0.1-1,0.3c0,0-0.3,0.3-0.4,0.8
	c-0.2,1.1,11.2,31.3,14.6,40.4c0.1,0.1,0.6,1,1.7,1.2c0.8,0.1,1.4-0.2,1.6-0.3c2.8-3.3,5.7-6.6,8.5-10c1.5,0.7,21.3,9.8,24.2,29.2
	c2.9,18.6-10.8,38.9-33.4,45.1c5.5,1.7,13.2,3.2,22.4,2.6C1235.3,608.8,1238.5,608.3,1241.4,607.7z"/>
<path class="st13" d="M1404.3,602.5c4.8,4.6,9.5,9.3,14.3,13.9c12.4,12,24.8,24.1,37.2,36.2c-11.8-6.1-23.5-12.1-35.3-18.2
	c9.9,20.2,19.9,40.5,29.8,60.7c-14.5-11-28.9-21.9-43.4-32.8c9.2,14.2,18.5,28.3,27.7,42.5c-16.6-3.2-33.2-6.5-49.8-9.7
	c13.8,11.3,27.5,22.5,41.3,33.8c-18.2-9.7-36.4-19.5-54.6-29.2c2.8,9.2,5.5,18.4,8.3,27.6c-12.2-12.6-24.4-25.3-36.5-37.9"/>
<path class="st1" d="M1171.1,752.5c0.8-1-40.8-34.4-98.6-90.3c-7.3-7-22.1-22.1-51.6-52.2c-29.4-29.9-49.1-50.4-67.5-82.9
	c-3.1-5.6-5.6-10.3-7.1-13.4c-4.3-3.8-7.8-6.9-10.1-9c-4.8-4.2-5.9-5.2-7.9-7.1c-5.8-5.6-7.7-8.4-8-8.1c-1,0.8,13.3,23.7,26.8,42
	c21.9,29.6,41.1,50.2,56.9,67c47.4,50.3,71.1,75.4,101,101.7C1139.5,730.5,1170.5,753.3,1171.1,752.5z"/>
<path class="st1" d="M1172.3,240.3c0.2,0.1,0.5,0.3,0.7,0.5c29.9,19.9,51,37.6,68.3,52.2c51.5,43.9,77.2,65.8,104.5,93.9
	c30.4,31.3,55.7,61.5,54.7,62.4c-1.3,1.2-43.8-45.7-102.7-99c-49-44.3-92.3-77.6-122.7-99.8"/>
<path class="st8" d="M702.7,240.5"/>
<path class="st8" d="M940.1,336.3"/>
<path class="st6" d="M1002.2,400.8c2.3,3.1,5.5,7.2,9.9,11.3c1.9,1.8,7.7,7.1,16.8,12c6.9,3.8,10.4,5.6,14.6,6.1
	c7.3,0.9,13.4-1.9,25.5-7.5c5.9-2.7,10.1-5.2,12.1-6.5c5.5-3.4,9.9-6.8,13.3-9.6"/>
<path class="st14" d="M941.9,218.9c1.2,18.9,3.1,35,4.9,47.8c1.4,9.7,2.8,18.1,9.4,25.6c5,5.7,11,8.6,15.4,10.2
	c-4.2,6.9-8.3,13.8-12.5,20.7c1.1-0.1,2.2-0.3,3.5-0.6c3.8-1,6.5-3.1,8.1-4.5c-16.9,27.8-19.4,35.4-18,36.5c0.8,0.6,2.4-0.6,6.8-0.7
	c2.9-0.1,5.2,0.3,6.6,0.7c-4.8,10.1-9.5,20.2-14.3,30.3c3.9-1.2,7.8-2.4,11.7-3.5c-2.9,7.4-5.8,14.8-8.7,22.1c1,0,3.1-0.2,5.3-1.5
	c2.1-1.2,3.4-2.8,3.9-3.7c-0.5,4.7-0.9,9.4-1.4,14.1c0.3,1.8,0.8,4.4,1.6,7.4c3.8,14.5,10.2,24.4,11.8,26.8
	c9.7,14.5,22.3,22.6,29.2,26.4l0,0c-1.5-0.5-3.7-1.2-6.2-2.3c-1.9-0.8-3.5-1.6-8.7-4.5c-6.6-3.7-10-5.6-12.8-7.6
	c-2.3-1.6-2.9-2.2-5.5-4c-3.7-2.5-5.3-3.2-7.6-5.3c-1.9-1.7-3.3-3.4-4-4.5c-0.8-1.3-1.5-2.9-2.2-4.8c-1.1-3.2-1.6-6.1-1.7-8.3
	c0.4-1.9,0.7-4.2,0.8-6.8c0.1-1.9-0.1-3.5-0.2-5c-0.4-6.2-0.9-9.3-1.5-9.3c-0.4,0-0.8,1.4-1.3,4.1c-0.2,1.9-0.5,3.7-0.7,5.6
	c-1.2-3.5-2.3-7.6-3.1-12.4c-0.9-5.3-1.1-10-1.1-14c-1.2,1-2.3,2.1-3.5,3.1c-0.3-4.8-0.5-10-0.4-15.6c0.1-6,0.6-11.6,1.1-16.7
	c-1.6,0.7-3.2,1.5-4.8,2.2c1.1-6.7,2.8-14.3,5.6-22.6c1.8-5.1,3.7-9.8,5.6-13.9c-2.7,3.2-5.4,6.4-8.1,9.6c0.9-5.3,2.6-12.2,6-19.8
	c2.9-6.3,6.1-11.4,9-15.2c-1.7-0.5-4-1.4-6.3-3c-1.2-0.9-2.7-1.9-4.1-3.9c-1.1-1.5-1.7-3.2-3-6.6c-0.4-1-0.8-2.1-1.3-3.7
	c0,0-1.3-4-2.4-7.9c-3.7-13.2-5.4-22.6-5.4-22.6c-2.5-13.8-2.9-26.6-2.9-35.5C937.1,220.7,939.5,219.8,941.9,218.9z"/>
<path class="st14" d="M1001,401.7c-0.5,0.3,3.4,12.2,12,23.7c4,5.4,9,12,18,16.1c0.3,0.1,0.5,0.2,0.7,0.3
	c11.5,4.9,24.7-2.8,31.7-6.9c8.8-5.1,14.6-10.9,18.9-15.2c5.3-5.3,11.4-12.4,11.3-12.5c0,0-0.4,0.3-0.5,0.4
	c-1.6,1.3-6.5,5.5-13.3,9.5c-2.7,1.6-5.2,2.9-6.5,3.6c-1.1,0.6-2.7,1.4-11.6,5.5c-4.9,2.3-5.4,2.5-6.2,2.7c-0.3,0.1-5.3,1.8-9.9,2.1
	c-7.1,0.4-12.6-2.9-21.8-8.4c-2.7-1.6-6.5-3.9-20.2-17.4C1001.3,402.9,1001.1,401.6,1001,401.7z"/>
<path class="st14" d="M1025.8,314.3c0.5,0,0.7,1,0.8,1.4c0.1,0.6,0.2,1.5-0.7,3.6c-0.5,1.4-1.1,2.4-1.2,2.6
	c-0.3,0.5-1.1,1.9-3.1,4.3c-0.8,1-1.9,2.2-3.3,3.6c0,0.1,0.2,0.4,0.4,0.4s0.3-0.1,0.5-0.3c0.5-0.5,0.7-0.7,0.8-0.8
	c0.5-0.8,1.9-2,2.7-3.1c1.1-1.5,2.8-4.4,4.4-8.4c2,1.2,8.9,5.6,10.9,14c0.9,3.9,0.4,7-0.3,10.3c-0.9,4.4-2.6,13.3-10,18.2
	c-2.5,1.6-4.8,2.4-6.3,2.7c-1.6,0.6-3.6,1.6-5.4,3.5c-3.9,4.1-3.3,8.9-4.7,9c-2.2,0.1-2.8-11.4-2.7-11.8c0-0.1,0.1-0.3,0.1-0.3
	c0-0.1,0.1-0.2,0.2-0.4c0.6-1.4,2-3.6,7.2-10.3c4.5-5.8,5.6-6.9,5.7-9.2c0.1-2.9-1.6-5.9-3.9-7.4c-1.8-1.2-3.4-1-5.3-1.3
	c-7.7-1.1-15.4-8.5-14.5-13.2c0.2-0.9,0.7-2.2,2.8-3.6c0.1,1.2,0.4,3.6,2.2,5.3c0.8,0.7,1.6,1.2,2.5,1.6c1.7,0.9,3.3,1.2,4,1.4
	c4.1,0.7,8.5-1.9,11-4.3c0.1-0.1,0.1-0.1,0.2-0.2C1024.8,317.8,1024.9,314.2,1025.8,314.3z"/>
<path class="st14" d="M961.7,220c1.6,4.9,6.3,16.7,18.2,26.1c8.9,6.9,17.8,9.4,22.8,10.5c-5.1,0.7-10.2,1.5-15.3,2.2
	c0,3.1,0,6.3,0.1,9.5c-3.4-1.6-6.8-3.1-10.2-4.7c2.1,5.1,4.2,10.2,6.3,15.3c-3.8-2.4-7.6-4.9-11.3-7.3c-0.3,3.4-0.5,6.7-0.8,10.1
	c-1.7-5.5-3.3-11.1-5-16.6c1.3,1.6,2.7,3.2,4,4.9c-0.1-1.4-0.1-2.8-0.2-4.3c2.1,1.1,4.1,2.2,6.2,3.3c-0.4-2.6-0.9-5.2-1.3-7.8
	c3,0.5,6.1,1,9.1,1.5c-1.9-1.5-3.8-3-5.7-4.5c-2.8-4-5.6-8.7-8.3-14.1C965.8,235.1,963.2,226.8,961.7,220z"/>
<path class="st14" d="M1069.8,260.3c8.5,3.7,17.1,7.4,25.6,11.1c3.9-2.1,10.5-6.4,15.8-14.2c9.8-14.6,7.3-30.4,6.6-34.1
	c-0.8,5.5-3.3,16.7-11.7,27.5c-5.9,7.6-12.6,12.2-17,14.7c-4-0.9-8-1.8-12.1-2.7"/>
<path class="st8" d="M997.7,321.2c1-1.5,2.8-3.7,5.6-5.7c3.1-2.2,5.9-3,7.8-3.6c4.1-1.2,7.2-1.2,8.8-1c2.4,0.2,3.4,0.7,4.1,1.1
	c0.3,0.2,2.5,1.7,2.9,4.4c0.2,1.4-0.1,2.7-1.7,5.3c-1.2,2.1-3.1,4.9-6.1,8"/>
<path class="st15" d="M1047.3,368.9c-0.3,0.7,8,2.5,12.4,9.4c1,1.5,2.9,4.6,2.3,8.1c-0.3,1.8-1.1,2.9-0.7,3.2c0.6,0.4,3.9-1.7,5-4.9
	c1.4-3.9-1.1-7.7-1.5-8.2c-1.7-2.5-4.1-3.5-8.7-5.3C1051.8,369.5,1047.5,368.4,1047.3,368.9z"/>
<path class="st15" d="M1128.1,210c0.4,5.6,2,13.3,7.6,19.3c5.7,6,10.1,4.5,18.3,9.8c9.4,6.1,9.7,12,21.8,28.1
	c3.4,4.6,8.9,11.4,16.7,19.2c-3.5-4.9-6.1-9.3-7.8-12.5c-2-3.7-6.6-12.4-9.5-23.8c-0.8-3.1-1.2-5.5-2.7-10.1
	c-1.4-4.6-2.8-8.4-3.8-10.8c-2.2,1.1-4.4,2.2-6.5,3.4c-1.3-1.8-2.5-3.7-3.8-5.5c-2.1,0.8-4.2,1.6-6.3,2.4c0.1-5.1,0.2-10.3,0.3-15.4
	c-1,1.4-2,2.8-3.2,4.2c-1.2,1.5-2.4,2.9-3.5,4.2c-1.9-1.9-3.8-3.8-5.7-5.7c-1.4,1.6-2.9,3.3-4.3,4.9c-1.2-1.4-2.4-3.1-3.7-5
	C1130.3,214.3,1129.1,212,1128.1,210z"/>
<path class="st15" d="M942.7,199.8c0,0.9,0,1.8,0,2.7c10.2,7.4,20.4,14.8,30.6,22.1c-0.6-4.2-1.1-8.4-1.7-12.6
	c6.6,6.3,13.1,12.7,19.7,19c1.1-2.7,2.2-5.4,3.3-8c8.1,11.9,16.3,23.7,24.4,35.6c-2.3-7.6-6-17.1-12.3-27.3
	c-3.9-6.4-8.1-11.6-11.9-15.9c-1.7,2-3.4,4.1-5.2,6.1c-3.2-2.7-6.4-5.5-9.7-8.3c-3.8-3.3-7.6-6.6-11.3-9.8c-0.4,3.3-0.8,6.6-1.1,9.8
	C959.3,208.8,951,204.3,942.7,199.8z"/>
<path class="st15" d="M1088.6,311c-0.7-1,3-6.7,7.6-6.9c6.3-0.3,11.2,9.8,10.9,10c-0.2,0.2-2.1-3.7-6.3-5
	C1094.8,307.4,1089.4,312.1,1088.6,311z"/>
<path class="st15" d="M1073.2,365.1c2.2,3.2,5.3,8.4,7.1,15.4c1.9,7.2,1.8,13.3,1.4,17.2c0.6-0.6,1.5-1.5,2.3-2.7
	c0.6-0.9,1.2-2.1,1.8-4.1c0.9-3,0.9-5.4,1-8.4c0.2-5.3-0.4-7-0.6-7.5c-0.3-0.9-0.8-2.1-1.9-3.4c-1.4-1.6-2.8-2-5.6-3.4
	C1077.3,367.5,1075.4,366.5,1073.2,365.1z"/>
<path class="st15" d="M1010.4,303.2c-0.6-1.1,4.2-6.6,9.8-6.4c6.8,0.3,11,9,10.2,9.8c-0.6,0.7-4.1-3.7-10.6-4.4
	C1014.4,301.6,1010.9,304,1010.4,303.2z"/>
<path class="st4" d="M1102.4,316.9c-0.1,0.4-1.2,3.6-3.5,3.5c-1.8-0.1-3.3-2.3-2.8-4c0.4-1.5,2.3-2,2.6-2.1c1.2-0.3,3.2-0.3,3.8,0.8
	C1102.8,315.6,1102.6,316.3,1102.4,316.9z"/>
<path class="st4" d="M1023.5,315.4c-0.1,0.4-1.2,3.6-3.5,3.5c-1.8-0.1-3.3-2.3-2.8-4c0.4-1.5,2.3-2,2.6-2.1c1.2-0.3,3.2-0.3,3.8,0.8
	C1024,314.1,1023.7,314.8,1023.5,315.4z"/>
<path class="st2" d="M919.4,125.1"/>
<path class="st16" d="M1399.5,608.6c9.7,7.4,19.4,14.8,29.1,22.2c-5.3-1.3-10.5-2.7-15.7-4c4.4,12.1,8.9,24.2,13.3,36.3
	c-10.9-4.2-21.8-8.3-32.7-12.5c7.5,14.1,15.1,28.3,22.6,42.4c-13.6-3.6-27.2-7.3-40.8-10.9c2.2,5.4,4.3,10.8,6.5,16.1
	c-6.3-2.6-12.7-5.1-19-7.7c1.5,4.8,3,9.7,4.4,14.5c-6.7-7.2-13.4-14.4-20.1-21.5c10-14,20.1-28.2,30.2-42.7
	C1384.8,630.1,1392.2,619.3,1399.5,608.6z"/>
<path class="st17" d="M1393.6,617.5c6.8,9.9,13.6,19.9,20.5,29.8c-9.7-1.7-19.3-3.3-29-5c3.9,10.8,7.9,21.6,11.8,32.4
	c-9.7-0.7-19.4-1.3-29.1-2c-0.2,4-0.3,8.1-0.5,12.2c-3.6-4.4-7.3-8.7-10.9-13.1C1368.7,653.7,1381.1,635.6,1393.6,617.5z"/>
<path class="st18" d="M1410.2,588.9c-8.4,18.7-19.7,40.2-34.8,62.8c-14.1,21.2-28.6,38.8-41.8,53.2c-3.8-3.2-7.6-6.4-11.4-9.6
	c3.6-4.2,8.5-10.1,14.1-17.3c9.6-12.2,16.3-21.9,23.3-32c8.8-12.7,13.5-19.4,19.5-29.1c5.5-8.9,12.6-21.1,20.2-36
	C1402.9,583.5,1406.6,586.2,1410.2,588.9z"/>
<path class="st19" d="M936.1,504.7"/>
<path class="st18" d="M833.8,229.4c2.6,10.6,32.5,127.9,79.4,200.5c18.6,28.7,37.9,51.2,37.9,51.2c5.9,6.6,19.1,21,52,48.2
	c27.8,23,43.5,33.5,90.3,68c41.2,30.3,42.1,31.8,57.4,42.7c30.6,21.9,76.4,51.6,139.6,81.8c-5.1,3.7-20.1,13.4-39.8,11.5
	c-6.8-0.6-12.4-2.5-16.7-4.4c-3.9-1.4-7-3-9.7-4.5c-11-6.1-18.1-12.9-23.7-17.8c-7.8-6.9-16.6-12.8-24.8-19.2
	c-32.6-25.6-123.7-91.3-177.5-128.2c-2.5-1.7-10-7.6-20.6-14.7c0,0-20.7-15.1-43.2-35.5c-3.1-2.8-7.6-7-12.9-12.5
	c-4-4.2-9.1-9.6-14.9-17.3c-4.8-6.4-8-11.6-10.6-15.8c-2.6-4.2-4.6-7.8-8.5-15c-5.2-9.7-8.9-16.5-13.5-25.9
	c-15.1-30.5-24.3-55.6-27.8-65.6c-3.3-9.3-4.6-13.8-5-15.1c-3.7-12.7-2.8-13.9-7.9-38.2c-1.4-6.5-2.8-12.8-3.7-22.1
	c-0.4-3.9-0.5-6.8-0.6-8.9c-0.5-11-0.9-20.8,1.6-32.3C831.2,237.7,832.1,233.9,833.8,229.4z"/>
<polygon class="st2" points="236.4,195.4 230.9,174.1 210.3,166.5 228.9,154.7 229.7,132.7 246.7,146.7 267.8,140.7 259.7,161.2 
	272,179.5 250,178.1 "/>
<polygon class="st2" points="205.9,208.1 202.7,195.7 190.7,191.3 201.5,184.4 202,171.6 211.9,179.8 224.3,176.3 219.5,188.2 
	226.7,198.9 213.9,198 "/>
<polygon class="st2" points="270.7,172.3 269.3,166.7 263.8,164.7 268.7,161.5 269,155.7 273.4,159.4 279.1,157.9 276.9,163.3 
	280.1,168.1 274.3,167.7 "/>
<polygon class="st2" points="1369.1,180.1 1363.6,158.8 1342.9,151.2 1361.5,139.4 1362.4,117.4 1379.3,131.5 1400.5,125.5 
	1392.4,145.9 1404.7,164.2 1382.7,162.8 "/>
<polygon class="st2" points="1331.7,144.6 1328.8,133.1 1317.7,129 1327.6,122.7 1328.1,110.9 1337.2,118.4 1348.6,115.2 
	1344.2,126.2 1350.8,136 1339,135.3 "/>
<polygon class="st2" points="1349.5,180.3 1348.1,174.7 1342.6,172.7 1347.6,169.6 1347.8,163.7 1352.3,167.5 1357.9,165.9 
	1355.7,171.3 1359,176.1 1353.2,175.8 "/>
<polygon class="st2" points="442.8,187.1 437.3,165.8 416.6,158.2 435.2,146.4 436.1,124.4 453,138.4 474.1,132.4 466.1,152.9 
	478.4,171.2 456.4,169.8 "/>
<polygon class="st2" points="488.4,145.4 482.9,124.1 462.3,116.5 480.9,104.7 481.6,82.7 498.6,96.7 519.9,90.7 511.6,111.2 
	524,129.5 502,128.1 "/>
<polygon class="st2" points="491.1,177.6 488.6,168.4 479.8,165.1 487.8,160 488.1,150.5 495.5,156.6 504.6,154 501.1,162.8 
	506.4,170.7 497,170.1 "/>
<polygon class="st2" points="445.1,124.4 442.4,113.7 432,109.8 441.3,103.9 441.8,92.9 450.3,99.9 460.9,96.9 456.8,107.2 
	463,116.4 452,115.7 "/>
<polygon class="st2" points="530.1,171.4 527.3,160.7 517,156.9 526.3,151.1 526.7,140.1 535.2,147.1 545.8,144.1 541.7,154.3 
	547.8,163.4 536.9,162.7 "/>
<polygon class="st2" points="558.6,155.7 553.1,134.4 532.4,126.8 551,115 551.9,93 568.8,107 590,101 581.9,121.5 594.2,139.8 
	572.2,138.4 "/>
<polygon class="st2" points="780.7,157.2 776.7,141.6 761.5,136 775.2,127.3 775.8,111.1 788.2,121.5 803.8,117 797.8,132.1 
	806.9,145.5 790.7,144.5 "/>
<polygon class="st2" points="793.5,193.4 790.1,179.9 777,175.2 788.8,167.7 789.3,153.9 800,162.7 813.3,159 808.2,171.8 
	815.9,183.4 802.1,182.5 "/>
<polygon class="st2" points="743.4,145 740.1,132.3 727.8,127.8 738.9,120.7 739.4,107.6 749.5,116 762.1,112.4 757.3,124.6 
	764.6,135.5 751.5,134.7 "/>
<polygon class="st2" points="751.6,189.9 748.2,176.2 735,171.4 746.8,163.9 747.4,149.8 758.2,158.8 771.7,155 766.5,168 
	774.4,179.7 760.3,178.8 "/>
<polygon class="st2" points="696.2,275.6 692.7,262.1 679.7,257.3 691.4,249.9 691.9,236.1 702.6,244.9 716,241.1 710.8,254 
	718.6,265.5 704.7,264.7 "/>
<polygon class="st2" points="670.1,296.7 667.5,286.6 657.7,283 666.5,277.4 666.9,266.9 675,273.6 685,270.8 681.2,280.5 
	687,289.1 676.6,288.5 "/>
<polygon class="st2" points="643.8,260.5 638.3,239.2 617.6,231.6 636.2,219.8 637.1,197.8 654,211.9 675.2,205.8 667.1,226.3 
	679.4,244.6 657.4,243.2 "/>
<polygon class="st2" points="696.8,228.5 694.2,218.1 684.1,214.4 693.2,208.7 693.6,197.9 701.8,204.8 712.2,201.8 708.2,211.8 
	714.2,220.8 703.5,220.1 "/>
<polygon class="st2" points="1430.8,151.9 1425.3,130.6 1404.6,123 1423.2,111.2 1424.1,89.2 1441,103.2 1462.2,97.2 1454.1,117.7 
	1466.3,136 1444.4,134.6 "/>
<polygon class="st2" points="1393.4,116.4 1390.4,104.9 1379.3,100.8 1389.3,94.5 1389.8,82.7 1398.9,90.2 1410.3,87 1405.9,98 
	1412.5,107.8 1400.7,107.1 "/>
<polygon class="st2" points="1411.2,152.1 1409.8,146.5 1404.3,144.5 1409.2,141.4 1409.5,135.5 1414,139.3 1419.6,137.7 
	1417.4,143.1 1420.7,147.9 1414.8,147.6 "/>
<polygon class="st2" points="1325.1,73.6 1346.3,67.7 1353.5,46.9 1365.6,65.2 1387.7,65.6 1374,82.8 1380.4,103.9 1359.8,96.2 
	1341.8,108.9 1342.7,86.9 "/>
<polygon class="st2" points="1359.9,35.5 1371.3,32.3 1375.1,21.1 1381.6,31 1393.5,31.2 1386.1,40.5 1389.6,51.8 1378.5,47.6 
	1368.8,54.4 1369.3,42.6 "/>
<polygon class="st2" points="1324.5,54.1 1330.1,52.5 1332,47 1335.2,51.9 1341,52 1337.4,56.5 1339.1,62.1 1333.7,60.1 
	1328.9,63.4 1329.1,57.6 "/>
<polygon class="st2" points="1408.1,278 1429.3,272.1 1436.5,251.3 1448.7,269.6 1470.7,270 1457,287.3 1463.5,308.3 1442.8,300.6 
	1424.8,313.3 1425.7,291.3 "/>
<polygon class="st2" points="1424.5,329.7 1437.8,326 1442.3,312.9 1450,324.5 1463.8,324.7 1455.2,335.5 1459.3,348.8 1446.3,344 
	1435,351.9 1435.5,338.1 "/>
<polygon class="st2" points="1399.1,256.7 1409.2,253.9 1412.5,244.1 1418.3,252.7 1428.7,252.9 1422.3,261.1 1425.3,271.1 
	1415.5,267.4 1407,273.4 1407.4,263 "/>
<polygon class="st2" points="1434.7,229.6 1455.9,223.7 1463,202.9 1475.2,221.2 1497.2,221.6 1483.5,238.8 1490,259.9 
	1469.4,252.2 1451.3,264.9 1452.3,242.8 "/>
<polygon class="st2" points="1476.3,276.6 1497.5,270.7 1504.7,249.8 1516.9,268.2 1538.9,268.5 1525.2,285.8 1531.7,306.8 
	1511,299.2 1493,311.8 1493.9,289.8 "/>
<polygon class="st2" points="1460.7,316.7 1471,313.8 1474.5,303.7 1480.5,312.6 1491.2,312.8 1484.5,321.2 1487.7,331.5 
	1477.6,327.7 1468.8,333.9 1469.3,323.2 "/>
<polygon class="st2" points="335.6,156 343.3,153.8 345.9,146.2 350.4,152.9 358.4,153 353.4,159.3 355.8,167 348.3,164.2 
	341.7,168.8 342,160.8 "/>
<polygon class="st2" points="345.3,138.3 353,136.2 355.6,128.6 360,135.3 368,135.4 363.1,141.7 365.4,149.4 357.9,146.6 
	351.4,151.2 351.7,143.2 "/>
<polygon class="st2" points="360.4,155.4 368.2,153.3 370.8,145.7 375.2,152.4 383.2,152.5 378.2,158.8 380.6,166.4 373.1,163.6 
	366.5,168.2 366.8,160.2 "/>
<polygon class="st2" points="447.5,740.2 455.1,738.1 457.9,730.5 462.2,737.2 470.4,737.3 465.4,743.6 467.6,751.3 460.1,748.5 
	453.6,753.1 453.9,745.1 "/>
<polygon class="st2" points="457.1,722.5 464.9,720.4 467.6,712.8 472,719.5 480,719.6 475,725.9 477.4,733.6 469.9,730.8 
	463.2,735.4 463.6,727.4 "/>
<polygon class="st2" points="1208.3,89.4 1216.1,87.2 1218.7,79.6 1223.1,86.3 1231.2,86.4 1226.2,92.8 1228.5,100.4 1221,97.6 
	1214.4,102.3 1214.7,94.2 "/>
<polygon class="st2" points="1173.9,72.4 1158.7,78.2 1155,94 1144.8,81.4 1128.6,82.7 1137.4,69.1 1131.2,54.1 1146.9,58.3 
	1159.2,47.8 1160,64 "/>
<polygon class="st2" points="1208.3,55.5 1195.3,60.5 1192.1,74 1183.3,63.2 1169.5,64.3 1177.1,52.6 1171.8,39.8 1185.2,43.4 
	1195.7,34.4 1196.4,48.3 "/>
<polygon class="st2" points="1166.1,110.9 1153.8,115.6 1150.7,128.4 1142.5,118.2 1129.4,119.2 1136.5,108.2 1131.5,96.1 
	1144.2,99.5 1154.2,90.9 1154.9,104 "/>
<polygon class="st2" points="1199.8,104 1186.7,109 1183.4,122.7 1174.5,111.8 1160.5,112.9 1168.2,101.1 1162.8,88.1 1176.4,91.7 
	1187.1,82.6 1187.8,96.6 "/>
<polygon class="st2" points="43.6,244.4 38.2,223 17.5,215.4 36.1,203.6 37,181.6 53.9,195.6 75.1,189.6 67,210.2 79.2,228.4 
	57.3,227.1 "/>
<polygon class="st2" points="82.9,196.6 78.9,180.9 63.7,175.3 77.3,166.6 78,150.5 90.4,160.8 106,156.4 100,171.5 109.1,184.9 
	92.9,183.9 "/>
<polygon class="st2" points="95.7,232.7 92.3,219.3 79.2,214.5 91,207.1 91.5,193.3 102.2,202.1 115.5,198.3 110.4,211.2 
	118.1,222.7 104.3,221.8 "/>
<polygon class="st2" points="45.6,184.4 42.3,171.6 30,167.1 41.1,160.1 41.6,147 51.7,155.4 64.3,151.8 59.5,164 66.8,174.9 
	53.7,174.1 "/>
<polygon class="st2" points="696.9,773.9 710.4,756.5 703.7,735.5 724.4,742.9 742.3,730.1 741.6,752.1 759.3,765.2 738.2,771.4 
	731.3,792.2 718.9,774 "/>
<polygon class="st2" points="668.1,757.6 676,747.5 672.1,735.4 684.2,739.6 694.6,732.1 694.2,745 704.5,752.6 692.2,756.1 
	688.2,768.4 680.9,757.7 "/>
<polygon class="st2" points="44.8,113.2 51.7,92.3 38.4,74.7 60.4,74.8 73,56.7 79.7,77.7 100.8,84.1 82.9,96.8 83.4,119 
	65.6,105.8 "/>
<polygon class="st2" points="12.3,107.5 16.3,95.3 8.5,85.1 21.4,85.2 28.7,74.6 32.6,86.8 44.9,90.5 34.5,98 34.7,110.8 
	24.4,103.3 "/>
<polygon class="st2" points="86.2,112.3 88,106.7 84.5,102.1 90.3,102.1 93.6,97.3 95.4,102.8 101,104.6 96.2,108 96.4,113.8 
	91.7,110.3 "/>
<polygon class="st2" points="261.9,785.5 256.5,764.1 235.8,756.5 254.4,744.7 255.3,722.7 272.2,736.8 293.4,730.8 285.3,751.2 
	297.5,769.5 275.6,768.1 "/>
<polygon class="st2" points="231.5,798.2 228.3,785.8 216.3,781.3 227.1,774.5 227.6,761.7 237.5,769.8 249.8,766.3 245.1,778.3 
	252.2,788.9 239.4,788.1 "/>
<polygon class="st2" points="1082.2,733.7 1080.7,728 1075.3,726 1080.2,722.9 1080.4,717.1 1084.9,720.8 1090.5,719.2 
	1088.4,724.6 1091.6,729.5 1085.8,729.1 "/>
<polygon class="st2" points="33.8,770.3 29.1,751.6 11,745 27.2,734.7 28,715.4 42.8,727.7 61.4,722.4 54.3,740.4 65,756.4 
	45.7,755.1 "/>
<polygon class="st2" points="75.4,755.3 73.2,746.8 65,743.8 72.4,739.1 72.7,730.4 79.5,736 87.9,733.6 84.7,741.7 89.5,749 
	80.8,748.4 "/>
<polygon class="st2" points="68.8,731.1 65.6,718.6 53.6,714.2 64.4,707.4 64.9,694.5 74.8,702.7 87.1,699.2 82.4,711.1 89.5,721.8 
	76.7,721 "/>
<polygon class="st2" points="41.6,723.7 40.1,718 34.6,716 39.6,712.9 39.8,707.1 44.3,710.8 49.9,709.2 47.7,714.6 51,719.5 
	45.2,719.1 "/>
<polygon class="st2" points="1520,769.7 1533.5,752.3 1526.8,731.3 1547.5,738.7 1565.4,725.9 1564.7,747.9 1582.4,761 
	1561.3,767.2 1554.4,788 1542,769.8 "/>
<polygon class="st2" points="1491.2,753.4 1499.1,743.3 1495.2,731.2 1507.3,735.4 1517.7,727.9 1517.3,740.8 1527.6,748.4 
	1515.3,751.9 1511.3,764.2 1504,753.5 "/>
<polygon class="st2" points="925.9,754.5 939.4,737.2 932.7,716.2 953.4,723.5 971.3,710.8 970.6,732.8 988.3,745.8 967.2,752 
	960.3,772.8 947.9,754.7 "/>
<polygon class="st2" points="897.1,738.3 905,728.2 901.1,716 913.2,720.3 923.6,712.8 923.2,725.7 933.5,733.3 921.2,736.8 
	917.2,749 909.9,738.3 "/>
<polygon class="st2" points="235.4,92.3 248.9,75 242.2,54 262.9,61.3 280.8,48.6 280.1,70.6 297.8,83.6 276.7,89.8 269.8,110.6 
	257.4,92.5 "/>
<polygon class="st2" points="206.6,76.1 214.5,66 210.6,53.8 222.7,58.1 233.1,50.6 232.7,63.5 243,71.1 230.7,74.6 226.7,86.8 
	219.4,76.1 "/>
<polygon class="st2" points="766.3,709.3 760.8,688 740.1,680.3 758.7,668.5 759.6,646.5 776.5,660.5 797.6,654.5 789.6,675 
	801.9,693.3 779.9,692 "/>
<polygon class="st2" points="811.9,667.5 806.4,646.3 785.8,638.6 804.4,626.8 805.1,604.8 822.1,618.8 843.4,612.8 835.1,633.3 
	847.5,651.6 825.5,650.3 "/>
<polygon class="st2" points="814.6,699.8 812.1,690.5 803.3,687.3 811.3,682.1 811.6,672.6 819,678.8 828.1,676.1 824.6,685 
	829.9,692.8 820.5,692.3 "/>
<polygon class="st2" points="768.6,646.5 765.9,635.8 755.5,632 764.8,626 765.3,615 773.8,622 784.4,619 780.3,629.3 786.5,638.5 
	775.5,637.8 "/>
<polygon class="st2" points="853.6,693.5 850.8,682.8 840.5,679 849.8,673.3 850.2,662.3 858.7,669.3 869.3,666.3 865.2,676.5 
	871.3,685.5 860.4,684.8 "/>
<polygon class="st2" points="882.1,677.8 876.6,656.5 855.9,649 874.5,637.1 875.4,615.1 892.3,629.1 913.5,623.1 905.4,643.6 
	917.7,662 895.7,660.5 "/>
<polygon class="st2" points="572.6,704.2 569.3,691.3 556.8,686.7 568,679.6 568.5,666.3 578.8,674.8 591.5,671.1 586.7,683.5 
	594.1,694.6 580.8,693.8 "/>
<polygon class="st2" points="600.2,679 596.8,666.1 584.4,661.5 595.6,654.4 596.1,641.1 606.3,649.5 619.2,645.9 614.2,658.3 
	621.7,669.4 608.4,668.5 "/>
<polygon class="st2" points="601.8,698.5 600.3,692.9 595,690.9 599.8,687.8 600,682.1 604.5,685.8 610,684.2 607.9,689.5 
	611.1,694.3 605.4,693.9 "/>
<polygon class="st2" points="574,666.3 572.4,659.8 566.1,657.5 571.7,653.9 572,647.3 577.1,651.5 583.5,649.7 581.1,655.9 
	584.8,661.5 578.2,661 "/>
<polygon class="st2" points="625.4,694.7 623.7,688.3 617.5,686 623.1,682.4 623.3,675.8 628.5,680 634.9,678.2 632.4,684.4 
	636.1,689.9 629.5,689.5 "/>
<polygon class="st2" points="642.6,685.2 639.3,672.3 626.8,667.8 638,660.6 638.6,647.3 648.8,655.8 661.6,652.1 656.7,664.5 
	664.2,675.6 650.8,674.8 "/>
<polygon class="st2" points="128.6,696.9 133.5,690.2 130.6,681.9 138.7,685 145.4,680.2 145.5,688.8 152.5,694.1 144.5,696.3 
	142.1,704.4 137.1,697.2 "/>
<polygon class="st2" points="152.3,701.6 157.2,694.9 154.3,686.6 162.4,689.8 169.1,684.9 169.2,693.5 176.3,698.8 168.1,701 
	165.8,709.2 160.8,701.9 "/>
<polygon class="st2" points="143.4,710 145.5,707 144.3,703.5 147.8,704.8 150.7,702.7 150.7,706.5 153.8,708.7 150.3,709.7 
	149.3,713.2 147.1,710.1 "/>
<polygon class="st2" points="147.7,683 150.1,679.7 148.7,675.5 152.8,677 156.1,674.6 156.2,679 159.7,681.6 155.7,682.7 
	154.5,686.8 152,683.2 "/>
<polygon class="st2" points="155,720.9 157.4,717.5 156,713.3 160,714.9 163.4,712.5 163.4,716.8 166.9,719.5 162.9,720.5 
	161.7,724.6 159.2,721 "/>
<polygon class="st2" points="166.7,726.2 171.6,719.5 168.7,711.2 176.8,714.3 183.6,709.5 183.6,718.1 190.7,723.4 182.6,725.6 
	180.3,733.8 175.2,726.5 "/>
<polygon class="st2" points="21.9,551.6 35.2,548.8 40.5,536.2 47.3,548.1 60.8,549.3 51.7,559.3 54.8,572.5 42.4,567 30.7,574 
	32.2,560.5 "/>
<polygon class="st2" points="46.3,581 59.7,578.2 65,565.7 71.7,577.5 85.3,578.6 76.1,588.7 79.2,602 66.8,596.3 55.1,603.4 
	56.6,589.9 "/>
<polygon class="st2" points="26.4,581.7 32.1,580.4 34.4,575.1 37.3,580.2 43.2,580.6 39.2,585 40.6,590.7 35.2,588.3 30.2,591.4 
	30.8,585.6 "/>
<polygon class="st2" points="60.6,554.8 67.3,553.5 70,547.2 73.4,553.1 80.1,553.7 75.6,558.8 77.1,565.4 70.9,562.6 65,566.1 
	65.8,559.3 "/>
<polygon class="st2" points="29.1,606 35.8,604.6 38.4,598.3 41.7,604.2 48.5,604.8 43.9,609.8 45.5,616.5 39.3,613.6 33.5,617.1 
	34.2,610.4 "/>
<polygon class="st2" points="37.9,624 51.3,621.3 56.6,608.7 63.3,620.5 76.9,621.7 67.7,631.8 70.8,645 58.4,639.4 46.7,646.5 
	48.2,632.9 "/>
<polygon class="st2" points="357.9,666.2 355.3,655.9 345.3,652.3 354.2,646.6 354.7,636 362.8,642.8 372.9,639.9 369.1,649.7 
	375,658.5 364.4,657.9 "/>
<polygon class="st2" points="379.8,646.1 377.2,635.9 367.3,632.2 376.2,626.6 376.6,616 384.7,622.7 395,619.8 391,629.7 
	396.9,638.5 386.4,637.8 "/>
<polygon class="st2" points="381.1,661.6 379.9,657.2 375.7,655.6 379.5,653.2 379.7,648.6 383.2,651.5 387.6,650.3 385.9,654.5 
	388.5,658.3 384,658 "/>
<polygon class="st2" points="359,636 357.7,630.9 352.7,629 357.2,626.2 357.4,620.9 361.5,624.3 366.6,622.8 364.6,627.8 
	367.6,632.2 362.3,631.9 "/>
<polygon class="st2" points="399.9,658.6 398.5,653.5 393.6,651.7 398,648.9 398.2,643.6 402.3,646.9 407.4,645.5 405.5,650.4 
	408.4,654.8 403.1,654.5 "/>
<polygon class="st2" points="413.6,651.1 410.9,640.8 401,637.2 409.9,631.5 410.4,620.9 418.5,627.7 428.7,624.8 424.8,634.6 
	430.7,643.4 420.1,642.8 "/>
</svg>
